<?xml version="1.0" standalone="no"?>
<!DOCTYPE svg PUBLIC "-//W3C//DTD SVG 20010904//EN"
 "http://www.w3.org/TR/2001/REC-SVG-20010904/DTD/svg10.dtd">
<svg version="1.0" xmlns="http://www.w3.org/2000/svg"
 width="801.000000pt" height="322.000000pt" viewBox="0 0 801.000000 322.000000"
 preserveAspectRatio="xMidYMid meet">
<metadata>
Created by potrace 1.15, written by Peter Selinger 2001-2017
</metadata>
<g transform="translate(0.000000,322.000000) scale(0.100000,-0.100000)"
fill="#000000" stroke="none">
<path d="M1211 3186 c-25 -13 -40 -25 -35 -28 5 -3 3 -3 -4 -1 -20 5 -52 -16
-52 -33 0 -9 -9 -53 -19 -98 -11 -44 -41 -169 -66 -276 -25 -107 -57 -240 -70
-295 -66 -275 -75 -316 -70 -325 3 -4 2 -10 -3 -12 -4 -1 -30 -95 -56 -208
-27 -113 -56 -236 -65 -274 l-16 -68 -34 43 c-19 24 -38 49 -43 56 -5 7 -5 14
2 18 6 4 10 3 9 -2 -1 -4 0 -12 1 -18 2 -11 19 55 45 170 19 87 36 161 68 295
13 58 66 281 116 495 50 215 95 406 101 425 13 46 13 50 -5 44 -8 -4 -12 -11
-8 -17 3 -5 1 -7 -5 -3 -14 9 -65 -12 -57 -24 4 -6 -1 -7 -11 -3 -12 4 -15 3
-10 -5 4 -8 2 -10 -7 -6 -8 3 -17 2 -20 -3 -7 -10 -77 -313 -161 -688 -15 -66
-33 -142 -41 -170 -18 -69 -65 -275 -70 -305 -2 -14 -8 -40 -14 -59 -6 -19 -8
-39 -5 -45 3 -6 -11 7 -31 29 -33 37 -35 44 -30 85 4 25 13 71 21 102 8 32 12
70 9 85 -4 19 -3 22 3 10 5 -13 14 12 31 85 12 57 47 209 77 338 74 320 84
362 88 386 3 12 9 38 14 58 12 40 6 44 -36 22 -15 -7 -40 -18 -57 -22 -32 -10
-31 -8 -114 -374 -57 -251 -123 -533 -131 -561 -5 -17 -7 -36 -4 -40 13 -22
-6 -5 -33 29 -31 38 -31 40 -18 83 8 24 19 64 25 87 8 31 15 42 25 38 9 -3 12
0 8 10 -4 12 -12 10 -47 -10 -22 -13 -58 -31 -78 -39 l-37 -15 -37 46 c-21 26
-29 39 -18 30 19 -16 22 -16 71 9 29 15 49 31 46 36 -3 6 -1 7 5 3 13 -8 58
12 89 38 17 14 20 23 13 37 -12 22 -13 39 -1 21 6 -9 12 1 20 33 7 26 10 49 7
52 -8 8 -336 -157 -337 -170 -2 -32 -6 -65 -13 -97 -7 -33 -3 -41 51 -109 32
-40 58 -76 58 -80 0 -3 12 -19 27 -36 23 -27 147 -180 198 -245 11 -14 56 -70
100 -125 252 -311 310 -386 310 -395 0 -6 -4 -8 -10 -5 -16 10 -11 -1 7 -16
14 -12 16 -12 9 0 -6 9 -5 12 4 9 23 -7 22 -26 0 -33 -12 -4 -19 -9 -17 -12 3
-2 14 0 26 6 17 9 22 8 33 -11 7 -13 11 -27 10 -31 -1 -5 1 -6 6 -3 10 6 142
-155 142 -174 0 -6 4 -9 8 -6 4 2 13 -3 19 -13 10 -17 8 -18 -25 -17 -45 3
-73 29 -174 161 -12 17 -25 32 -29 35 -28 23 -247 305 -242 313 3 6 1 7 -5 3
-6 -4 -19 6 -29 21 -9 15 -52 71 -95 123 -43 52 -77 97 -76 100 1 3 -16 23
-38 45 -22 22 -56 61 -75 86 -19 25 -72 92 -119 148 -47 57 -84 108 -82 113 1
5 -2 7 -7 4 -5 -4 -11 -1 -13 5 -2 7 -12 -25 -23 -70 -12 -55 -21 -77 -27 -69
-7 10 -9 9 -5 -2 2 -8 10 -15 18 -15 8 0 13 -9 12 -18 0 -10 2 -16 5 -13 7 8
42 -24 42 -37 0 -6 -10 -2 -22 9 l-23 19 19 -22 c10 -13 22 -20 26 -18 9 5 67
-63 86 -101 9 -17 9 -25 0 -35 -9 -11 -8 -11 6 0 20 15 40 6 36 -17 -2 -9 3
-17 9 -17 7 0 20 -11 30 -25 9 -14 20 -27 24 -30 8 -6 336 -415 364 -455 11
-15 29 -38 41 -51 11 -13 29 -35 40 -50 10 -14 27 -35 36 -46 10 -11 15 -26
11 -32 -3 -6 -3 -8 2 -4 9 8 43 -31 41 -47 0 -5 -14 -11 -31 -11 -30 -2 -38 4
-85 66 -14 18 -32 41 -40 50 -8 10 -23 28 -33 40 -14 16 -16 25 -8 33 6 6 11
16 11 21 0 6 -5 3 -11 -8 -14 -22 -10 -26 -195 206 -78 99 -123 163 -118 170
4 7 4 10 -1 6 -4 -4 -20 5 -34 20 -57 59 -262 323 -257 331 3 4 -2 8 -10 8 -9
0 -13 -6 -9 -16 3 -8 -2 -47 -11 -86 l-17 -72 74 -93 c41 -51 73 -96 71 -101
-1 -5 2 -8 6 -7 5 2 21 -11 35 -28 22 -26 24 -33 12 -38 -8 -3 -22 -2 -32 1
-10 4 -14 2 -10 -4 9 -14 56 -22 60 -10 1 5 47 -45 100 -112 81 -101 96 -124
88 -140 -12 -22 -5 -32 16 -24 12 5 12 7 1 14 -7 5 -8 9 -3 9 6 0 54 -54 108
-120 l97 -120 -65 0 c-58 0 -66 3 -81 25 -9 14 -21 22 -27 18 -5 -3 -7 -2 -4
4 7 11 -19 53 -33 53 -4 0 -11 -23 -15 -50 l-7 -50 -43 0 -43 0 14 66 c8 36
12 70 8 75 -3 5 0 9 5 9 15 0 14 47 -1 56 -7 5 -8 2 -3 -7 5 -8 4 -11 -1 -6
-5 5 -9 12 -9 17 0 5 -16 29 -35 54 l-34 47 -16 -63 c-43 -166 -50 -199 -45
-208 3 -5 1 -11 -5 -15 -19 -12 -10 -32 36 -89 l46 -56 1388 0 1387 0 40 47
c21 27 43 54 48 62 9 15 -74 381 -87 381 -3 0 -30 -29 -58 -65 -28 -36 -55
-63 -59 -61 -3 3 -6 -6 -6 -20 1 -13 6 -24 11 -23 5 0 8 10 7 22 -3 21 -2 21
9 3 7 -14 8 -24 0 -36 -6 -10 -7 -22 -1 -31 7 -12 9 -12 10 1 0 8 7 -5 13 -30
7 -25 9 -49 5 -54 -5 -6 -9 -15 -9 -20 0 -6 4 -5 9 3 7 11 12 6 18 -20 9 -33
8 -34 -20 -37 -39 -5 -50 8 -51 62 -1 24 -3 42 -6 39 -3 -2 -10 15 -15 38
l-11 43 -52 -64 c-43 -53 -52 -70 -48 -92 5 -28 5 -28 -46 -28 -49 0 -51 1
-34 19 9 10 16 24 14 32 -2 7 4 13 12 14 8 0 14 8 14 18 -1 9 2 14 7 12 4 -3
20 12 35 35 15 22 31 40 37 40 6 0 7 3 4 7 -4 3 2 12 13 20 21 15 29 39 8 27
-7 -4 -8 -3 -4 5 4 6 11 9 16 6 11 -7 96 103 92 118 -2 7 -1 9 3 5 4 -3 35 28
68 70 96 119 117 149 109 157 -4 5 -2 5 5 1 14 -8 45 33 36 48 -3 6 -3 8 2 4
4 -4 23 12 42 35 19 23 45 54 58 69 19 23 20 29 9 39 -8 6 -12 14 -10 18 2 3
-1 33 -8 66 l-12 60 -22 -34 c-11 -19 -18 -39 -15 -44 3 -6 1 -7 -5 -3 -13 8
-44 -33 -35 -47 3 -6 1 -7 -5 -3 -13 8 -44 -33 -35 -47 3 -6 1 -7 -5 -3 -11 7
-38 -32 -34 -47 1 -5 -2 -6 -7 -2 -6 3 -15 -5 -22 -17 -7 -13 -16 -26 -21 -29
-5 -3 -11 -15 -12 -25 -2 -10 -8 -18 -14 -17 -13 3 -78 -85 -74 -99 1 -5 -2
-6 -8 -3 -7 4 -14 -2 -17 -14 -3 -12 -10 -21 -15 -21 -5 0 -6 -5 -3 -10 4 -6
1 -9 -7 -8 -7 2 -12 -5 -12 -14 1 -10 -2 -16 -6 -13 -12 8 -43 -33 -34 -46 4
-7 3 -10 -3 -6 -6 4 -29 -16 -53 -44 -40 -48 -41 -51 -24 -65 18 -14 18 -15
-2 -5 -19 9 -26 6 -49 -25 -23 -30 -25 -37 -13 -52 11 -15 11 -15 -3 -5 -13
11 -27 -1 -93 -82 -76 -94 -78 -95 -120 -95 -29 0 -46 5 -49 14 -4 9 -1 13 6
10 12 -4 64 63 59 78 -1 4 4 7 10 6 8 -2 13 8 13 24 0 14 3 30 7 34 4 3 5 -4
3 -17 l-5 -23 22 21 c19 19 20 24 7 40 -13 16 -12 17 2 5 13 -10 18 -10 28 1
6 8 8 17 4 20 -3 4 -1 7 6 7 7 0 9 5 6 10 -4 6 -2 9 3 8 15 -5 104 111 96 125
-4 6 -3 9 1 4 10 -8 45 21 45 37 0 6 -7 2 -15 -8 -8 -11 -15 -15 -15 -9 0 12
31 41 36 33 2 -3 19 14 38 36 19 23 32 44 29 48 -3 3 -1 6 6 6 7 0 9 5 6 10
-4 6 -1 9 6 8 6 -2 14 3 17 11 3 9 0 11 -8 6 -9 -5 -11 -4 -6 4 4 6 11 9 15 6
13 -7 44 32 35 46 -4 7 -3 10 4 5 6 -3 29 18 54 50 24 31 56 72 71 90 16 19
25 38 21 45 -4 7 -3 9 3 6 12 -8 86 77 76 87 -4 3 -1 6 5 6 6 0 32 27 57 60
50 65 49 62 24 163 -10 38 -11 38 -30 21 -11 -10 -17 -24 -14 -31 2 -8 1 -12
-4 -9 -9 6 -82 -79 -160 -186 -22 -32 -49 -65 -59 -75 -10 -10 -32 -36 -48
-58 -16 -21 -37 -48 -47 -58 -10 -10 -15 -22 -12 -28 4 -5 3 -8 -2 -7 -11 4
-144 -158 -141 -169 2 -4 -1 -10 -7 -11 -24 -8 -34 -26 -31 -53 2 -16 0 -32
-4 -34 -5 -3 -7 6 -5 20 1 14 1 25 0 25 -8 0 -80 -103 -77 -111 1 -5 -2 -8 -7
-7 -13 4 -111 -124 -104 -136 3 -5 1 -6 -4 -3 -6 4 -19 -6 -29 -21 -9 -15 -39
-52 -66 -83 -46 -54 -60 -78 -36 -63 7 4 8 3 4 -5 -4 -6 -11 -9 -16 -6 -4 3
-13 -2 -20 -10 -8 -10 -30 -15 -63 -15 -49 0 -50 0 -33 19 10 11 15 25 11 31
-3 6 -2 9 3 8 13 -4 124 131 117 142 -3 5 0 12 6 16 8 5 9 3 4 -7 -14 -24 9 2
61 71 27 36 61 78 76 95 16 16 28 35 28 40 0 6 9 16 21 23 13 9 18 19 14 30
-3 9 -3 13 1 9 10 -10 35 13 27 26 -4 6 -1 7 7 2 10 -6 12 -4 7 8 -4 10 -2 16
4 14 6 -1 16 6 22 17 7 10 24 32 39 49 15 17 24 35 21 40 -3 6 -2 7 4 4 10 -7
54 45 57 69 1 7 6 17 11 21 4 5 4 1 0 -7 -6 -10 -1 -9 13 4 15 13 20 27 18 47
-2 16 0 32 4 34 5 3 7 -6 5 -20 -1 -14 -1 -24 0 -23 40 42 83 104 78 112 -3 6
-3 8 2 4 9 -8 42 31 37 45 -1 4 2 6 7 5 5 -2 34 30 65 70 30 40 71 92 91 116
19 24 35 47 35 52 0 5 -5 2 -11 -6 -9 -13 -10 -13 -6 0 2 8 10 15 18 15 8 1
13 7 11 14 -1 7 2 10 7 7 5 -4 17 4 25 16 12 17 13 25 3 37 -10 14 -10 14 4 4
9 -7 19 -10 22 -6 10 10 8 45 -2 39 -5 -4 -7 2 -5 11 8 31 -11 98 -27 95 -12
-3 -12 -1 -1 10 11 11 -20 29 -179 108 l-193 95 -27 113 c-15 66 -25 133 -23
160 2 36 2 40 -4 17 -7 -26 -10 -19 -27 59 l-19 89 -70 32 c-39 18 -72 31 -74
30 -3 -2 30 -167 44 -220 3 -11 6 -29 8 -40 3 -19 43 -183 52 -215 7 -27 34
-144 43 -190 5 -25 12 -54 15 -65 3 -11 26 -108 52 -215 25 -107 50 -201 56
-208 9 -10 8 -12 -2 -10 -7 2 -15 -3 -18 -11 -3 -10 0 -11 9 -5 11 6 12 5 2
-7 -10 -12 -10 -18 0 -29 10 -12 9 -12 -5 -1 -10 7 -15 18 -11 25 4 6 -1 5
-10 -3 -9 -7 -14 -18 -10 -25 4 -6 -1 -5 -11 3 -12 10 -15 23 -12 45 3 17 3
24 -1 16 -7 -17 -65 218 -58 238 2 6 0 12 -5 12 -6 0 -10 8 -9 18 0 10 3 12 6
5 2 -7 10 -13 16 -13 7 1 3 8 -9 18 -15 13 -28 51 -48 142 -40 184 -46 211
-70 300 -8 30 -18 75 -21 100 -4 24 -11 52 -16 62 -5 10 -8 18 -6 18 3 0 -2
26 -10 58 -8 31 -24 98 -36 147 l-22 90 -69 33 c-37 18 -71 31 -74 28 -4 -5
60 -294 138 -621 16 -66 32 -135 35 -154 3 -18 14 -65 25 -105 10 -39 21 -87
24 -106 9 -58 95 -423 106 -449 9 -20 7 -28 -15 -51 -27 -28 -32 -42 -14 -38
6 2 13 -3 14 -10 2 -7 1 -8 -2 -2 -3 7 -9 8 -17 1 -8 -7 -12 -4 -14 12 -2 29
-67 306 -136 579 -30 120 -53 229 -52 243 2 13 0 23 -4 20 -3 -2 -41 145 -84
328 -42 183 -82 348 -87 368 -8 32 -16 39 -80 67 -58 26 -69 28 -65 14 8 -27
328 -1402 332 -1426 3 -21 46 -198 65 -269 9 -34 12 -37 27 -25 9 7 7 1 -6
-16 -12 -15 -19 -33 -15 -39 3 -5 1 -7 -5 -3 -11 7 -79 -80 -74 -96 1 -5 -2
-7 -7 -4 -5 3 -14 -1 -21 -9 -7 -8 -9 -15 -4 -15 5 0 -2 -7 -14 -16 -12 -8
-22 -20 -22 -26 0 -7 7 -3 16 8 14 18 15 18 4 -4 -6 -12 -15 -20 -19 -18 -13
8 -44 -31 -35 -45 4 -7 3 -10 -4 -5 -6 3 -18 -4 -26 -16 -15 -21 -16 -21 -16
-3 0 15 -8 21 -30 22 -26 2 -30 -1 -30 -22 0 -29 24 -34 39 -7 10 15 10 15 8
-5 -2 -11 -8 -27 -15 -35 -9 -11 -9 -17 1 -27 9 -10 9 -11 -4 -6 -13 5 -37
-19 -94 -94 l-78 -101 -108 0 -108 0 10 30 11 30 26 -21 27 -21 3 24 c2 12 10
28 19 35 8 7 12 17 7 24 -4 8 -3 10 5 5 6 -4 9 -19 7 -33 -3 -14 -2 -23 1 -20
3 4 14 2 23 -3 16 -9 18 -6 14 19 -3 16 0 32 6 36 8 5 7 11 -2 22 -12 15 -11
15 9 3 12 -8 21 -16 20 -19 -1 -4 1 -7 6 -8 18 -7 26 -1 24 17 -1 11 -4 20 -8
20 -4 0 -10 8 -14 17 -5 15 -4 16 6 6 22 -22 33 -14 13 8 -14 16 -15 23 -6 26
6 3 12 9 12 14 0 6 -9 5 -21 -2 -22 -11 -39 0 -39 26 0 6 4 4 9 -4 6 -9 8 -4
8 17 -1 20 -8 32 -19 36 -10 2 -18 0 -18 -4 0 -5 -130 -9 -290 -10 -192 0
-290 3 -290 10 0 18 -22 10 -27 -10 -3 -11 -9 -20 -14 -20 -5 0 -8 -3 -7 -7 4
-15 -14 -53 -24 -53 -6 0 -9 -3 -5 -6 3 -4 0 -22 -9 -42 -17 -43 -13 -49 19
-27 l25 16 7 -41 7 -42 24 22 23 23 7 -29 c10 -45 14 -47 38 -25 l23 21 13
-25 c7 -14 19 -25 26 -25 16 0 29 19 19 28 -3 3 -10 1 -14 -7 -6 -10 -10 -9
-15 5 -3 9 -4 19 -1 22 3 3 5 0 5 -7 0 -7 5 -9 10 -6 7 4 6 14 -1 28 -9 18 -9
20 2 9 16 -15 33 -16 23 0 -4 7 -3 8 5 4 9 -6 9 -11 1 -21 -13 -15 2 -55 20
-55 13 0 13 17 0 25 -5 3 -10 12 -10 18 0 7 5 4 11 -5 13 -24 24 -23 26 2 1
13 -2 18 -9 14 -6 -4 -8 -3 -4 4 3 5 0 13 -6 15 -9 4 -8 6 2 6 8 0 22 -3 30
-9 8 -5 19 -5 25 -1 5 5 18 8 28 8 14 0 17 -6 12 -24 -8 -32 3 -29 16 4 l10
28 19 -25 19 -25 10 25 c6 15 10 18 10 9 1 -19 -33 -52 -43 -42 -4 4 -4 0 0
-10 3 -9 10 -17 16 -17 5 0 7 4 4 9 -3 5 1 11 9 14 9 4 12 1 8 -9 -3 -7 0 -14
6 -14 6 0 11 8 11 18 0 10 3 13 8 6 4 -6 16 -16 27 -22 16 -9 7 -11 -53 -12
-47 0 -71 4 -67 10 4 6 11 8 16 5 5 -3 6 1 3 9 -3 9 -8 16 -11 16 -10 0 -29
-26 -26 -35 2 -6 -62 -9 -179 -7 l-183 4 -80 100 c-44 56 -104 133 -133 172
-30 39 -68 86 -85 104 -24 25 -27 32 -14 32 15 0 16 4 7 20 -6 11 -16 20 -22
20 -7 0 -6 -5 2 -15 11 -13 10 -14 -2 -10 -8 3 -48 47 -88 98 -41 51 -64 83
-52 73 12 -11 24 -17 25 -15 2 2 26 99 52 214 27 116 52 212 55 215 3 3 7 15
7 27 2 25 58 284 72 328 6 21 10 24 10 10 0 -11 -6 -41 -13 -67 l-15 -46 56
24 c30 14 73 34 94 45 22 11 45 17 51 13 6 -4 8 -3 5 2 -3 6 26 25 64 44 38
18 69 37 69 41 0 4 8 6 18 5 9 0 16 5 14 12 -1 8 2 11 7 7 6 -3 50 13 97 36
l87 42 -66 34 -67 33 -89 -44 c-50 -24 -87 -47 -83 -51 4 -5 2 -5 -4 -2 -12 7
-196 -80 -202 -95 -8 -20 -24 -6 -18 17 3 14 9 37 12 52 6 23 4 25 -12 20 -18
-7 -18 -7 0 8 25 19 92 281 76 300 -5 7 48 -18 118 -54 70 -36 131 -67 135
-67 31 -6 67 -29 67 -43 0 -10 3 -12 8 -5 5 7 69 -19 193 -80 102 -50 228
-111 280 -136 52 -25 96 -48 97 -52 2 -5 10 -8 18 -8 24 0 144 -64 144 -77 0
-7 7 -13 15 -13 12 0 13 5 7 18 -5 9 -15 48 -22 86 l-13 69 -206 99 c-113 55
-298 145 -411 200 -113 55 -233 114 -267 131 -34 16 -61 33 -59 36 2 3 -10 7
-26 8 -17 1 -33 4 -35 7 -8 8 14 71 25 69 5 -1 93 -42 193 -91 101 -49 212
-102 246 -117 36 -16 60 -32 56 -38 -3 -5 -1 -7 4 -4 11 7 108 -36 331 -146
98 -49 132 -62 128 -49 -5 18 -20 78 -30 125 -4 15 -13 27 -21 27 -8 0 -15 8
-16 18 0 10 -3 12 -6 5 -3 -10 -12 -9 -36 4 -18 8 -35 21 -39 27 -4 6 -8 8 -8
3 0 -7 -100 40 -110 52 -3 3 -9 7 -15 8 -20 3 -80 32 -70 33 57 7 70 20 16 15
-26 -2 -39 1 -35 7 4 6 -1 8 -14 4 -24 -8 -94 23 -85 37 3 6 1 7 -5 3 -5 -3
-109 41 -229 99 -120 58 -223 103 -230 101 -7 -3 -10 3 -8 16 3 12 -1 29 -8
37 -11 14 -10 14 6 2 15 -12 17 -11 17 8 0 24 1 25 34 10 14 -7 23 -16 19 -22
-3 -6 -1 -7 4 -4 6 4 84 -29 174 -72 463 -222 579 -281 579 -290 0 -6 6 -8 14
-5 8 3 17 1 21 -5 3 -6 13 -11 20 -11 11 0 12 5 5 23 -5 12 -14 48 -20 79 -8
42 -16 59 -31 63 -22 7 -25 21 -5 28 12 5 12 14 -1 66 l-15 60 -54 -26 c-29
-15 -51 -30 -49 -33 8 -13 -60 -3 -99 14 l-38 17 63 30 c63 30 82 46 73 61 -3
4 2 5 11 1 14 -5 14 -8 3 -15 -14 -10 -11 -9 40 12 36 16 37 19 21 87 l-12 49
-43 -20 c-29 -13 -41 -23 -34 -31 6 -7 3 -11 -10 -11 -10 0 -16 4 -14 8 3 5
-6 3 -20 -4 -32 -14 -33 -26 -3 -38 12 -5 16 -9 8 -9 -8 -1 -22 6 -31 14 -14
12 -24 10 -90 -21 -41 -20 -77 -40 -80 -44 -3 -4 -92 35 -199 86 -107 52 -199
94 -205 94 -6 -1 -31 -11 -55 -24z m1662 -899 c-3 -6 -1 -7 5 -3 6 4 24 0 39
-8 16 -8 22 -15 15 -16 -10 0 -10 -4 0 -20 16 -26 28 -26 23 0 -4 19 0 18 52
-10 31 -16 61 -26 66 -23 5 3 -1 -8 -14 -26 -12 -17 -26 -31 -30 -31 -12 0
-198 90 -203 98 -2 4 -7 24 -11 45 l-7 38 35 -17 c20 -10 33 -22 30 -27z"/>
<path d="M3755 2721 c-17 -7 -17 -8 8 -15 15 -3 27 -11 27 -17 0 -6 -5 -7 -12
-2 -18 11 -157 10 -150 -1 3 -5 -2 -7 -11 -3 -9 3 -19 2 -23 -4 -3 -5 -15 -7
-27 -4 -14 4 -18 3 -9 -3 9 -6 6 -14 -12 -31 -13 -12 -29 -21 -36 -19 -7 2
-15 -3 -18 -11 -3 -10 0 -11 9 -5 11 6 12 5 3 -7 -24 -30 -43 -110 -43 -181 0
-96 3 -127 10 -122 3 2 13 -13 22 -32 20 -40 21 -48 7 -39 -5 3 -10 1 -10 -5
0 -7 8 -9 20 -5 15 5 18 2 15 -15 -2 -11 0 -18 6 -15 5 4 9 1 9 -4 0 -6 -6
-11 -12 -11 -9 0 -8 -3 2 -10 11 -7 17 -4 23 13 7 19 10 20 20 7 22 -29 190
-33 228 -6 12 8 28 12 37 9 11 -5 13 -3 7 8 -8 12 -6 12 9 0 15 -13 17 -12 12
12 -5 30 3 40 23 28 9 -6 10 -11 2 -15 -6 -4 -11 -15 -10 -24 0 -14 2 -13 9 3
l9 20 1 -20 1 -20 9 20 c5 14 2 26 -10 40 -15 17 -15 23 -4 45 8 14 14 19 14
11 0 -8 2 -12 5 -9 12 12 -15 58 -34 58 -11 0 -22 4 -25 8 -2 4 -22 9 -43 10
-27 2 -34 0 -23 -7 8 -6 12 -12 10 -14 -3 -2 -18 -13 -34 -25 -16 -12 -25 -22
-21 -22 5 0 17 8 27 17 17 15 18 15 13 1 -10 -25 -52 -51 -58 -35 -3 7 -6 5
-6 -5 -1 -10 -8 -18 -16 -18 -9 0 -12 6 -9 18 5 15 4 15 -6 -1 -9 -14 -15 -16
-26 -6 -8 6 -14 8 -14 4 0 -4 -7 -2 -16 6 -14 11 -14 13 0 21 9 5 16 14 16 19
0 6 -7 3 -16 -5 -8 -9 -19 -16 -24 -16 -30 0 -48 181 -21 214 7 8 10 19 7 24
-8 13 50 66 63 58 6 -4 11 -2 11 3 0 17 37 13 79 -9 39 -19 61 -52 42 -58 -22
-7 -10 -18 18 -18 17 0 28 3 26 7 -5 8 30 19 63 19 20 0 26 17 11 30 -3 3 -13
18 -21 34 -15 28 -14 31 6 48 11 9 16 17 9 18 -6 0 -15 -5 -18 -10 -5 -8 -12
-7 -23 2 -13 11 -14 11 -7 -2 6 -11 3 -10 -12 3 -11 9 -25 17 -32 17 -7 0 -10
4 -6 9 3 5 -4 16 -16 24 -15 11 -17 16 -7 20 7 3 9 5 3 6 -5 0 -19 -4 -30 -8z"/>
<path d="M4500 2701 c0 -5 -9 -7 -20 -4 -11 3 -27 0 -35 -7 -8 -6 -19 -9 -25
-5 -12 7 -10 -17 2 -25 4 -4 8 -113 8 -244 1 -130 3 -243 6 -249 3 -8 19 -11
45 -9 30 3 43 0 53 -13 9 -13 15 -15 20 -7 4 7 2 12 -4 12 -6 0 -10 6 -9 13 1
6 1 128 0 270 -1 226 -3 257 -17 257 -8 0 -12 5 -9 10 3 6 1 10 -4 10 -6 0
-11 -4 -11 -9z"/>
<path d="M6567 2695 c-3 -11 -7 -48 -8 -82 -1 -34 -6 -60 -10 -58 -4 3 -10 -3
-14 -13 -6 -15 -7 -15 -15 -1 -11 19 -111 19 -133 1 -8 -7 -18 -8 -22 -4 -5 4
-5 2 -2 -4 6 -10 -11 -24 -33 -28 -21 -4 -29 -20 -24 -43 4 -16 3 -24 -3 -20
-6 4 -10 -29 -10 -86 l0 -92 39 -47 c45 -54 97 -75 151 -60 42 11 98 7 107 -8
6 -9 9 -9 13 1 5 12 7 12 15 0 8 -11 10 -11 15 0 5 12 7 12 15 1 17 -25 21 26
23 275 1 156 -3 248 -10 260 -6 10 -11 14 -11 8 0 -5 -5 -3 -10 5 -6 10 -10
11 -10 3 0 -7 -11 -13 -24 -13 -13 0 -26 6 -29 13 -2 7 -6 4 -10 -8z m-96
-245 c6 0 7 5 4 10 -8 13 6 13 39 0 17 -6 28 -21 35 -47 14 -48 14 -93 1 -93
-5 0 -7 -7 -4 -15 4 -9 -4 -25 -20 -40 -28 -26 -52 -34 -40 -12 5 7 0 6 -11
-3 -15 -12 -17 -12 -10 -1 6 11 4 13 -8 8 -17 -7 -52 37 -42 53 3 6 1 10 -4
10 -12 0 -14 32 -5 78 7 32 33 51 44 31 5 -7 10 -8 14 -1 7 12 -21 24 -37 16
-7 -3 -3 2 8 11 12 9 21 11 23 5 2 -5 8 -10 13 -10z"/>
<path d="M5473 2685 c-7 -7 -10 -14 -8 -16 8 -9 10 -129 2 -129 -4 0 -6 -4 -3
-8 3 -5 6 -96 7 -203 1 -107 4 -188 6 -181 3 7 23 12 49 12 35 0 46 -4 52 -19
4 -11 5 70 4 180 -3 131 0 204 7 212 8 11 0 13 -38 11 -55 -2 -74 6 -66 27 7
18 72 24 91 8 8 -6 14 -10 15 -8 5 24 4 49 -3 49 -4 0 -8 16 -8 35 0 37 2 36
-68 40 -15 1 -33 -4 -39 -10z"/>
<path d="M1165 2570 c-49 -27 -50 -30 -66 -99 -17 -73 -12 -84 23 -57 10 7 14
17 10 21 -4 5 -1 5 6 1 8 -5 57 13 123 45 79 39 105 56 94 62 -8 4 -21 5 -28
1 -6 -4 -9 -4 -5 1 8 9 -54 45 -86 50 -12 2 -43 -9 -71 -25z"/>
<path d="M4927 2569 c-9 -6 -22 -7 -27 -4 -10 6 -14 -7 -11 -32 1 -9 -4 -9
-23 0 -13 7 -20 15 -14 18 5 3 -1 9 -13 12 -13 3 -28 2 -33 -2 -19 -14 -97
-21 -90 -8 3 7 -3 2 -13 -10 -14 -17 -21 -20 -33 -12 -13 9 -12 10 2 5 12 -3
15 -1 11 10 -5 13 -8 13 -24 -2 -20 -18 -25 -29 -10 -19 17 10 21 -12 6 -25
-56 -47 -66 -219 -16 -274 19 -21 18 -51 -1 -40 -7 4 -8 2 -4 -4 9 -16 33 -15
38 0 3 9 6 9 12 0 4 -7 2 -12 -3 -12 -22 0 -10 -18 16 -25 22 -5 24 -8 12 -16
-10 -8 -8 -9 9 -4 13 4 29 2 35 -4 16 -13 88 -21 81 -10 -3 5 -15 9 -27 9 -30
0 -107 31 -107 43 0 5 6 4 14 -2 8 -7 25 -9 40 -5 21 5 26 3 26 -12 0 -15 2
-16 9 -5 6 9 11 10 15 2 4 -6 12 -11 18 -11 7 0 6 6 -2 15 -8 9 -9 15 -2 15 6
0 14 -4 17 -10 4 -6 15 -2 27 10 20 19 33 24 51 21 4 0 6 3 5 8 -2 4 6 17 17
27 12 11 14 15 6 9 -12 -9 -12 -7 -1 12 8 12 17 20 21 17 4 -2 10 0 14 6 3 5
-1 10 -10 10 -9 0 -13 4 -10 10 4 6 -1 7 -11 3 -10 -4 -15 -2 -11 3 3 5 -3 10
-13 10 -10 0 -16 -4 -13 -9 3 -5 -8 -6 -25 -2 -26 5 -33 2 -47 -19 -13 -19
-24 -24 -51 -23 -39 3 -77 43 -54 57 10 6 9 9 -1 13 -8 3 36 6 96 5 61 0 116
0 123 1 10 1 13 18 11 64 -3 70 -8 89 -19 82 -4 -3 -11 2 -14 11 -3 8 -2 12 3
9 5 -3 13 0 17 7 4 7 4 10 -1 6 -9 -8 -50 11 -41 19 3 4 1 12 -5 20 -8 9 -8
13 -1 13 6 0 14 -4 17 -10 10 -16 23 -12 35 9 12 24 1 33 -23 20z"/>
<path d="M5264 2554 c-14 -20 -19 -23 -25 -11 -14 24 -117 10 -160 -22 -34
-24 -39 -31 -39 -48 0 -4 -7 2 -15 13 -14 18 -15 17 -6 -8 7 -17 6 -40 -1 -64
-9 -34 -7 -91 4 -146 2 -10 14 -28 26 -41 12 -13 22 -27 22 -32 0 -5 -6 -1
-13 9 -12 16 -13 16 -14 -3 -1 -15 3 -19 21 -15 13 2 29 -3 36 -11 7 -8 17
-12 22 -9 5 4 23 -3 39 -15 24 -18 28 -19 22 -4 -6 16 -5 16 10 4 16 -12 17
-12 11 5 -5 16 -4 16 5 4 15 -21 14 -30 -5 -30 -11 0 -14 -5 -10 -17 6 -15 4
-15 -14 2 -11 10 -20 15 -20 10 0 -4 -11 0 -25 9 -18 12 -37 15 -63 11 -29 -5
-34 -4 -22 5 13 10 13 11 -2 6 -10 -3 -18 -1 -18 5 0 6 -5 7 -11 3 -8 -4 -8
-9 -1 -13 6 -4 9 -19 8 -34 -2 -16 5 -38 16 -52 11 -14 16 -30 12 -37 -6 -9
-3 -9 9 1 13 10 20 11 31 2 8 -6 31 -14 51 -16 20 -3 41 -8 46 -11 5 -2 28 0
51 7 24 7 51 12 60 11 9 0 19 6 22 14 3 7 12 11 20 8 9 -4 13 1 13 13 -1 10 4
17 10 16 15 -3 14 -14 16 224 1 103 6 183 11 183 5 0 6 3 3 6 -3 4 -2 15 4 25
8 15 6 18 -8 13 -17 -5 -17 -5 0 9 16 13 16 15 2 21 -9 3 -14 2 -11 -2 3 -5
-1 -9 -9 -9 -10 0 -11 5 -5 16 7 13 2 17 -21 17 -29 2 -29 1 -13 -17 21 -24 7
-25 -18 -2 -18 16 -18 16 -12 0 4 -11 1 -17 -9 -17 -12 0 -14 -7 -11 -27 5
-26 4 -27 -9 -9 -14 19 -12 60 2 51 4 -2 8 2 8 10 0 21 -4 19 -23 -11z m-15
-101 c23 -19 38 -94 28 -135 -16 -63 -87 -89 -126 -46 -39 41 -39 140 0 179
24 24 70 25 98 2z"/>
<path d="M5723 2572 c4 -2 2 -11 -5 -20 -10 -14 -10 -15 2 -4 18 15 34 16 24
0 -4 -7 -3 -8 4 -4 7 4 12 2 12 -3 0 -6 -4 -11 -9 -11 -4 0 -21 -12 -36 -27
-23 -23 -26 -24 -16 -6 7 15 8 24 1 28 -6 4 -9 3 -8 -2 2 -4 -6 -30 -16 -57
-13 -34 -21 -44 -27 -35 -5 8 -9 9 -9 4 0 -6 4 -15 10 -21 6 -6 6 -21 0 -43
-6 -22 -6 -40 1 -53 6 -11 9 -29 6 -39 -3 -10 -1 -16 4 -13 9 5 30 -36 23 -47
-2 -4 4 -13 13 -20 14 -12 16 -12 9 1 -4 9 -1 8 7 -2 8 -10 20 -18 28 -18 19
-1 50 -25 42 -33 -3 -4 -2 -7 3 -7 6 0 16 6 22 12 10 10 15 10 20 1 5 -8 13
-9 22 -3 8 6 29 10 47 10 17 0 35 5 38 10 3 6 15 10 25 10 10 0 22 5 26 12 5
7 2 8 -7 3 -8 -4 1 8 20 28 38 40 41 48 44 124 1 28 5 46 9 40 5 -8 8 -7 9 3
0 8 2 23 4 33 2 9 -1 15 -6 11 -5 -3 -9 1 -9 8 0 11 -2 10 -9 0 -7 -11 -10
-10 -15 3 -3 9 -4 20 -1 25 3 4 -3 14 -12 21 -14 12 -16 12 -8 -1 5 -10 1 -8
-13 4 -21 18 -21 43 0 30 7 -5 8 -2 3 5 -5 9 -10 10 -18 2 -15 -15 -30 -14
-21 1 4 7 3 8 -5 4 -6 -4 -22 -1 -35 7 -13 9 -34 13 -51 10 -18 -4 -26 -2 -21
5 3 6 2 13 -4 17 -5 3 -10 0 -10 -8 0 -8 -12 -17 -27 -20 -33 -6 -51 2 -32 14
10 6 8 8 -6 7 -11 0 -27 1 -35 4 -8 3 -11 3 -7 0z m184 -135 c23 -23 28 -123
7 -155 -8 -13 -27 -27 -41 -33 -29 -11 -66 -3 -57 13 4 7 9 6 14 -1 3 -7 7 3
7 21 0 18 -2 27 -5 20 -2 -6 -8 -10 -13 -7 -5 4 -6 0 -3 -8 3 -8 -2 -17 -10
-20 -11 -4 -13 -1 -9 10 4 10 2 14 -5 9 -6 -3 -14 -1 -18 5 -4 7 -3 9 4 5 16
-10 26 14 12 27 -10 9 -11 9 -5 -3 8 -13 7 -13 -8 -1 -27 22 -19 88 15 122 20
20 94 17 115 -4z"/>
<path d="M4004 2544 c0 -15 5 -23 12 -20 13 5 13 -19 -1 -31 -4 -4 -5 -2 -1 5
4 6 2 12 -3 12 -6 0 -11 -10 -11 -23 0 -12 -6 -31 -13 -42 -8 -11 -14 -42 -16
-70 -1 -27 -4 -63 -7 -78 -5 -24 1 -35 42 -72 26 -24 54 -46 63 -47 9 -2 15
-12 14 -23 -1 -11 0 -14 3 -7 12 25 68 9 69 -20 0 -3 4 -10 9 -15 5 -4 6 -3 3
3 -4 6 0 20 8 30 12 17 17 18 46 7 23 -9 36 -10 44 -2 7 7 4 8 -10 3 -18 -7
-19 -6 -6 10 8 9 20 15 28 12 7 -3 13 1 13 10 0 8 5 12 10 9 6 -3 10 0 10 7 0
8 9 21 20 31 11 9 20 26 20 36 0 11 8 25 18 30 9 6 11 11 5 11 -9 0 -13 17
-13 49 0 27 -5 62 -12 78 -6 15 -10 33 -9 40 1 6 -4 15 -10 19 -8 5 -10 2 -5
-7 4 -8 -4 -2 -17 13 -14 15 -28 24 -31 21 -3 -3 -10 6 -15 21 -6 14 -16 26
-22 26 -8 0 -8 -4 0 -14 12 -15 3 -15 -107 -1 -19 2 -30 0 -27 -6 9 -13 -9
-11 -23 3 -7 7 -12 9 -12 5 0 -4 -9 -3 -20 3 -15 8 -20 8 -18 -1 2 -6 -3 -14
-11 -17 -8 -2 -11 0 -7 6 3 6 3 13 -2 16 -4 2 -8 -6 -8 -20z m208 -93 c27 -3
52 -121 26 -121 -9 0 -9 -3 0 -12 16 -16 -1 -44 -38 -63 -34 -18 -50 -19 -50
-4 0 5 5 7 12 3 7 -4 8 -3 4 5 -6 8 -12 9 -20 2 -9 -8 -19 -4 -37 15 -31 33
-35 129 -6 145 9 6 15 14 12 20 -3 5 0 6 8 3 8 -3 18 -1 21 5 4 5 19 8 34 6
15 -2 30 -4 34 -4z"/>
<path d="M6827 2554 c15 -12 15 -13 2 -8 -10 3 -20 0 -25 -7 -5 -8 -3 -10 7
-4 8 5 -3 -7 -23 -27 -21 -19 -38 -41 -38 -47 0 -7 -4 -10 -9 -7 -5 4 -7 -3
-4 -14 3 -11 1 -20 -3 -20 -5 0 -9 -28 -8 -62 1 -67 24 -127 63 -162 11 -10
18 -22 16 -26 -3 -5 5 -6 17 -3 16 3 19 2 10 -5 -16 -11 111 -9 148 3 23 7 24
7 10 -10 -13 -17 -13 -18 0 -10 8 5 20 13 25 17 6 5 18 14 28 21 10 7 20 26
21 42 2 16 11 34 20 40 9 7 16 16 16 20 0 4 -6 3 -13 -3 -10 -9 -19 -7 -37 5
-13 9 -20 11 -16 5 4 -7 1 -12 -8 -12 -9 0 -16 5 -16 10 0 19 -20 10 -47 -20
-26 -30 -51 -42 -37 -17 5 8 2 8 -9 -2 -12 -9 -21 -10 -29 -3 -7 6 -16 11 -20
11 -5 1 -8 4 -7 7 0 4 -5 10 -12 15 -10 6 -10 11 1 24 11 13 29 16 79 15 36
-1 85 -2 109 -1 l42 1 0 45 c0 42 6 51 33 46 5 -1 6 3 2 8 -3 6 -12 8 -20 5
-8 -4 -20 6 -29 25 -21 40 -21 40 14 36 18 -3 28 0 25 5 -3 6 -21 9 -38 7 -21
-1 -31 2 -29 11 1 6 -1 11 -5 11 -20 -3 -33 2 -30 13 1 7 -18 13 -53 15 -30 2
-62 6 -70 10 -8 3 -28 7 -43 8 -25 3 -26 2 -10 -11z"/>
<path d="M1636 2306 c-14 -19 -26 -43 -26 -54 0 -15 -6 -20 -25 -18 -14 0 -25
4 -25 7 0 3 -21 5 -47 4 -27 -1 -53 2 -60 7 -7 6 -20 4 -34 -4 -17 -10 -23
-10 -26 0 -3 6 -16 12 -29 12 -14 0 -23 -4 -20 -9 3 -5 -7 -11 -23 -14 -18 -4
-30 -14 -34 -27 -5 -21 -7 -21 -37 -5 -18 9 -29 12 -26 6 5 -7 -2 -11 -16 -12
-15 0 -18 -3 -8 -6 8 -4 20 -13 27 -22 8 -11 12 -12 13 -3 0 17 49 15 56 -3 4
-8 10 -13 14 -10 4 3 11 -2 14 -11 4 -11 2 -15 -8 -11 -8 3 -20 -2 -28 -11
-12 -16 -11 -16 6 -2 18 13 19 13 14 -1 -4 -9 -1 -16 8 -16 7 0 11 4 8 9 -3 4
-1 8 5 8 5 0 12 -6 15 -12 3 -7 4 1 1 17 -2 17 -2 24 1 18 9 -20 44 -16 44 5
0 11 3 13 8 5 12 -19 103 -22 135 -4 23 13 29 13 36 2 5 -7 7 -23 4 -35 -4
-19 -3 -19 7 -3 6 9 9 21 5 26 -3 5 -1 12 5 16 5 3 11 1 11 -4 3 -26 4 -30 12
-37 4 -4 7 -17 7 -28 0 -12 -3 -16 -8 -10 -4 6 -18 8 -32 4 -20 -5 -14 -8 30
-14 152 -21 167 -24 222 -51 25 -13 50 -20 54 -17 4 4 3 1 -1 -7 -6 -11 -4
-13 11 -7 10 4 15 4 11 0 -3 -4 2 -19 12 -33 35 -52 33 -55 -9 -13 -94 94
-192 121 -315 87 -176 -47 -273 -265 -190 -426 9 -16 16 -32 18 -36 5 -17 62
-73 74 -73 7 0 13 -4 13 -9 0 -5 24 -19 53 -32 73 -32 178 -31 268 4 40 15 70
22 76 16 5 -5 9 0 10 13 2 15 -1 18 -6 10 -6 -10 -10 -10 -21 2 -12 15 -35 12
-25 -3 2 -5 -7 -6 -20 -3 -14 2 -25 0 -25 -6 0 -19 -166 -40 -183 -23 -6 6
-26 11 -45 11 -19 0 -31 4 -27 10 3 6 1 10 -5 10 -16 0 -103 61 -96 67 3 3 -3
14 -13 24 -23 25 -43 107 -40 166 7 135 126 253 257 256 88 2 136 -17 199 -78
32 -31 61 -51 69 -48 8 3 20 0 28 -6 17 -14 27 6 32 64 2 32 1 35 -6 15 -6
-20 -8 -16 -9 25 0 36 2 46 9 35 8 -12 10 -10 10 8 0 13 -4 20 -10 17 -6 -4
-10 6 -10 23 0 16 -3 44 -7 62 -4 24 -3 31 5 26 8 -5 10 -1 5 10 -5 14 -3 16
11 11 10 -4 19 -1 23 8 4 11 9 12 18 5 8 -7 12 -5 12 5 0 7 -5 13 -11 12 -6
-1 -10 4 -9 11 2 6 -3 12 -10 12 -8 0 -7 4 3 10 11 8 8 9 -12 4 -18 -4 -29 -1
-35 11 -8 13 -15 14 -36 6 -15 -6 -27 -7 -27 -3 0 4 -5 0 -10 -8 -8 -12 -10
-10 -10 10 -1 31 -24 64 -42 57 -7 -2 -22 0 -33 6 -29 15 -86 26 -79 16 3 -5
-8 -6 -24 -3 -17 4 -32 1 -36 -5 -4 -6 -13 -11 -19 -11 -7 0 -6 4 3 10 8 5 12
12 9 15 -4 3 -18 -10 -33 -29z"/>
<path d="M1587 1966 c-20 -7 -45 -20 -54 -27 -49 -39 -63 -54 -63 -66 0 -7 -4
-13 -10 -13 -5 0 -17 -25 -26 -57 -28 -96 -2 -188 73 -253 21 -19 37 -37 36
-40 -1 -3 6 -6 15 -7 20 -1 63 -10 117 -24 26 -7 40 -8 43 -1 1 5 12 7 24 4
13 -3 19 -1 15 5 -4 6 3 8 18 5 14 -2 39 5 60 18 19 12 42 19 50 16 16 -6 20
-2 29 37 6 24 4 27 -18 27 -16 0 -27 -7 -31 -20 -3 -11 -13 -20 -21 -20 -8 0
-14 -5 -14 -11 0 -5 -4 -8 -8 -5 -5 3 -20 -1 -34 -8 -31 -17 -144 -14 -177 4
-21 11 -23 10 -18 -4 4 -10 3 -15 -3 -11 -6 3 -10 12 -10 20 0 11 -16 22 -40
27 -24 6 -80 122 -82 170 -2 71 56 158 130 195 90 45 237 5 277 -75 23 -45 36
-172 18 -172 -6 0 -17 -13 -24 -29 -7 -16 -16 -28 -20 -26 -3 3 -14 -4 -24
-15 -10 -11 -24 -20 -31 -20 -7 0 -16 -5 -20 -12 -5 -7 -2 -8 7 -3 8 5 11 4 6
0 -14 -16 -107 -4 -157 19 -27 13 -47 26 -43 30 3 3 1 6 -6 6 -17 0 -41 62
-41 104 0 79 50 136 132 150 46 8 134 -26 143 -55 4 -11 9 -17 13 -15 4 2 8
-23 9 -56 1 -43 -3 -61 -13 -65 -8 -3 -14 -11 -14 -19 0 -8 -6 -14 -14 -14 -7
0 -19 -7 -26 -15 -19 -23 -90 -19 -122 8 -27 22 -48 64 -48 96 0 9 14 32 31
49 48 49 89 43 138 -21 21 -27 -14 -87 -51 -87 -23 0 -58 22 -58 36 0 16 23
44 36 44 8 0 12 -5 9 -10 -8 -13 14 -42 26 -34 5 3 9 16 9 29 0 27 -47 66 -58
48 -4 -6 -14 -9 -23 -8 -9 2 -16 -2 -17 -9 -1 -6 -4 -25 -8 -41 -14 -73 81
-114 141 -62 39 33 45 94 13 131 -36 42 -128 68 -128 36 0 -5 -9 -7 -20 -5
-42 8 -98 -106 -69 -141 6 -7 16 -11 22 -7 6 3 7 1 3 -6 -4 -6 -12 -9 -17 -6
-22 14 6 -25 33 -47 72 -55 150 -53 214 7 96 91 45 239 -93 270 -41 10 -59 9
-102 -5 -63 -21 -84 -39 -111 -98 -21 -44 -23 -81 -6 -150 7 -32 79 -100 113
-108 15 -3 43 -10 60 -14 44 -11 124 11 165 46 28 22 68 75 73 94 1 3 5 12 9
21 12 27 3 124 -11 122 -7 -2 -10 4 -7 12 8 21 -39 80 -89 112 -51 32 -168 42
-230 19z"/>
<path d="M3460 1551 l0 -311 183 0 c100 0 198 5 217 10 41 11 94 61 109 103
28 73 0 157 -62 193 l-36 20 34 33 c75 71 52 197 -44 239 -27 11 -84 17 -218
20 l-183 4 0 -311z m341 188 c45 -23 30 -106 -21 -120 -14 -4 -64 -7 -112 -8
l-88 -1 0 68 c0 38 3 72 8 76 9 11 189 -2 213 -15z m-16 -239 c48 -11 65 -32
65 -80 0 -63 -23 -74 -156 -79 l-114 -3 0 86 0 86 83 0 c45 0 100 -5 122 -10z"/>
<path d="M5060 1550 l0 -311 58 3 57 3 3 144 c4 168 12 194 71 212 46 14 77 1
91 -37 6 -14 10 -93 10 -175 l0 -149 60 0 60 0 1 143 c1 78 4 132 6 120 9 -45
18 -22 15 34 -4 68 -21 96 -23 38 l-1 -40 -8 40 c-9 47 -6 55 20 50 24 -5 37
34 21 62 -10 15 -10 14 -5 -8 6 -30 -13 -50 -27 -28 -15 24 -10 34 7 13 14
-17 15 -17 10 -1 -3 10 -6 23 -6 28 0 16 -25 5 -33 -15 -5 -12 -3 -22 5 -27 7
-4 9 -11 4 -16 -4 -4 -12 0 -17 10 -30 53 -153 67 -219 23 -21 -13 -40 -23
-43 -20 -2 3 -2 32 0 64 3 33 2 80 -1 105 l-7 45 -55 0 -54 0 0 -310z"/>
<path d="M5830 1550 l0 -310 60 0 60 0 0 310 0 310 -60 0 -60 0 0 -310z"/>
<path d="M6068 1563 c1 -164 5 -304 7 -310 3 -8 24 -13 60 -13 l55 0 0 310 0
310 -62 0 -63 0 3 -297z"/>
<path d="M5556 1764 c-4 -10 -2 -13 6 -8 7 5 9 2 5 -9 -3 -9 0 -18 9 -21 8 -3
14 -10 14 -16 0 -7 -5 -7 -15 2 -41 37 -43 38 -48 17 -3 -12 0 -22 9 -26 13
-5 13 -9 -1 -29 -14 -22 -12 -29 8 -25 5 1 5 -3 2 -9 -4 -6 -13 -9 -21 -6 -8
3 -14 1 -14 -4 0 -6 5 -10 10 -10 6 0 10 -29 10 -67 0 -38 5 -75 10 -83 8 -13
14 74 13 185 0 6 8 11 18 11 18 0 19 -13 19 -213 l0 -213 60 0 60 0 -2 223 -3
222 -52 3 c-42 2 -53 7 -53 20 0 9 -7 26 -15 36 -8 10 -12 23 -9 27 3 5 1 9
-4 9 -6 0 -13 -7 -16 -16z"/>
<path d="M4202 1690 c-23 -5 -56 -19 -72 -30 -30 -22 -66 -77 -56 -87 3 -3 26
-9 52 -14 42 -8 48 -7 65 15 37 47 118 42 141 -10 15 -33 7 -38 -92 -59 -142
-31 -180 -62 -180 -146 0 -87 60 -134 159 -127 39 3 68 12 90 27 27 20 35 21
42 10 5 -8 9 -17 9 -21 0 -5 25 -8 56 -8 54 0 56 1 49 23 -4 12 -10 96 -14
187 -8 179 -14 200 -66 224 -40 18 -130 26 -183 16z m138 -257 c0 -40 -23 -94
-45 -109 -34 -23 -84 -14 -108 18 -19 25 -19 29 -4 51 10 15 35 30 69 40 71
21 88 21 88 0z"/>
<path d="M4715 1691 c-103 -17 -165 -100 -165 -221 0 -155 75 -239 213 -240
95 0 156 34 188 105 15 32 19 36 25 21 5 -14 9 -15 15 -4 6 9 9 8 9 -7 0 -12
-5 -26 -11 -32 -9 -9 -6 -12 12 -10 31 1 39 13 39 59 0 25 -6 40 -17 47 -17
10 -17 10 1 11 14 0 16 3 7 13 -6 8 -7 18 -3 22 4 5 1 5 -5 1 -10 -5 -13 6
-15 41 l-1 48 -4 -45 c-3 -24 -10 -48 -16 -52 -8 -5 -5 -8 8 -9 l20 0 -20 -9
c-11 -5 -14 -9 -7 -9 6 -1 12 -6 12 -12 0 -5 -5 -7 -11 -3 -8 4 -9 -1 -4 -17
3 -13 3 -19 -2 -13 -4 6 -28 15 -53 19 -25 3 -53 9 -62 11 -12 4 -18 0 -18
-11 0 -23 -54 -75 -79 -75 -69 0 -105 58 -99 161 3 55 8 73 28 94 43 45 140
27 140 -27 0 -12 9 -13 60 -5 33 5 60 14 60 19 0 20 -31 67 -59 91 -25 21
-114 50 -139 46 -4 -1 -25 -4 -47 -8z"/>
<path d="M6441 1689 c-146 -28 -210 -238 -115 -382 33 -51 91 -76 172 -77 69
0 117 16 146 48 17 19 21 20 46 7 22 -11 27 -11 27 0 0 7 -5 11 -11 9 -6 -2
-17 0 -24 5 -12 7 -12 12 -1 29 17 27 13 30 -46 41 -47 9 -49 8 -81 -26 -29
-31 -37 -34 -66 -28 -37 8 -70 33 -65 49 2 6 -2 22 -10 36 l-13 25 150 3 150
3 0 32 c0 54 -29 135 -61 172 -42 48 -118 69 -198 54z m91 -91 c23 -11 48 -56
48 -86 0 -8 -27 -12 -90 -12 l-90 0 11 28 c6 15 10 28 10 30 -4 13 4 22 32 36
39 19 46 19 79 4z"/>
<path d="M6843 1692 l-43 -3 0 -225 0 -224 53 0 54 0 7 138 c5 98 12 147 24
172 16 34 19 35 68 33 l52 -2 12 44 c15 52 10 61 -32 68 -41 6 -90 -13 -112
-44 l-16 -23 0 26 c0 34 -16 44 -67 40z"/>
<path d="M7285 1693 c-11 -2 -30 -6 -42 -9 -34 -7 -94 -64 -114 -109 -13 -27
-19 -64 -19 -116 0 -64 4 -85 28 -130 36 -70 88 -99 179 -99 94 0 137 21 183
91 22 33 35 59 30 59 -6 0 -10 -5 -10 -10 0 -10 -29 -8 -97 6 -15 3 -24 -2
-28 -17 -4 -11 -22 -27 -40 -36 -59 -28 -109 7 -122 84 -4 22 -2 22 148 25
144 3 152 2 160 -17 6 -15 8 -16 8 -4 1 9 -5 22 -13 28 -7 6 -16 36 -19 66 -7
74 -42 134 -92 161 -41 22 -105 34 -140 27z m97 -111 c10 -9 20 -32 24 -50 l7
-32 -92 0 c-88 0 -91 1 -91 23 0 29 26 66 54 77 28 13 77 4 98 -18z"/>
<path d="M7726 1689 c-62 -10 -97 -35 -115 -82 -17 -47 -8 -98 25 -130 25 -25
58 -38 176 -71 65 -18 85 -42 63 -72 -10 -15 -26 -19 -70 -19 -50 0 -60 3 -81
28 -26 30 -23 53 4 42 13 -5 12 -2 -3 13 -11 11 -24 17 -30 14 -5 -3 -3 -8 4
-10 19 -6 -45 -32 -80 -32 -39 0 -38 -29 1 -74 44 -50 102 -69 192 -64 127 7
188 55 188 148 -1 74 -38 105 -166 136 -38 9 -81 23 -96 31 -55 27 -24 63 56
63 36 0 48 -5 65 -26 19 -24 22 -25 73 -15 29 5 57 7 61 4 5 -3 -2 12 -16 33
-44 70 -140 102 -251 83z"/>
<path d="M1380 1380 c0 -5 5 -10 10 -10 6 0 10 -33 10 -80 0 -47 -4 -80 -10
-80 -5 0 -10 -7 -10 -15 0 -22 513 -20 535 2 18 18 19 64 3 82 -10 11 -10 14
0 18 15 6 16 47 2 74 -10 18 -24 19 -275 19 -170 0 -265 -4 -265 -10z m518
-23 c17 -11 1 -56 -22 -59 -11 -2 -117 -2 -233 0 l-213 3 0 34 0 34 229 -3
c126 -2 233 -6 239 -9z m-5 -87 c14 0 7 -48 -9 -54 -9 -3 -114 -6 -235 -6
l-219 0 0 33 0 32 227 -2 c126 -2 231 -3 236 -3z"/>
<path d="M6314 843 c4 -6 2 -14 -4 -18 -6 -3 -10 -50 -10 -109 0 -110 -6 -126
-50 -126 -43 0 -50 16 -50 123 0 74 -4 102 -15 113 -13 14 -17 14 -30 0 -11
-11 -15 -40 -15 -121 0 -104 1 -107 29 -136 25 -24 38 -29 79 -29 40 0 57 6
81 26 l31 26 0 114 c0 79 -4 114 -11 114 -7 0 -18 8 -26 18 -8 9 -12 12 -9 5z"/>
<path d="M3460 830 c-17 -5 -19 -8 -7 -9 15 -1 17 -15 17 -141 l0 -140 95 0
c95 0 95 0 95 25 0 24 -2 25 -65 25 l-65 0 0 35 0 35 55 0 c52 0 55 1 55 25 0
24 -3 25 -55 25 -54 0 -55 0 -55 30 l0 30 60 0 c57 0 60 1 60 25 0 24 -2 25
-65 25 -37 0 -65 4 -65 10 0 12 -24 12 -60 0z"/>
<path d="M3935 832 c-5 -4 -10 -19 -10 -34 -1 -26 2 -28 42 -28 l43 0 0 -115
0 -115 30 0 30 0 0 115 0 115 43 0 c38 0 42 2 42 25 0 25 0 25 -97 25 -59 0
-98 4 -98 10 0 12 -11 13 -25 2z"/>
<path d="M4297 825 c-19 -14 -53 -85 -96 -202 l-30 -83 30 0 c24 0 32 6 40 30
10 29 13 30 69 30 56 0 59 -1 69 -30 8 -24 16 -30 40 -30 17 0 31 1 31 3 0 2
-13 39 -29 83 -66 181 -92 222 -124 199z"/>
<path d="M4960 830 c0 -4 -26 -10 -57 -12 -47 -4 -61 -10 -84 -36 -54 -60 -50
-153 7 -210 33 -33 36 -34 100 -30 59 4 70 8 94 35 34 38 46 99 30 150 -14 44
-46 83 -69 84 -9 1 -5 4 9 8 l25 7 -27 6 c-16 3 -28 2 -28 -2z m0 -70 c27 -14
41 -71 29 -115 -16 -55 -74 -73 -120 -37 -18 15 -23 29 -23 71 -1 44 3 56 23
72 26 21 62 25 91 9z"/>
<path d="M5700 832 c0 -8 -29 -12 -95 -12 l-95 0 0 -140 0 -140 100 0 100 0 0
25 c0 24 -2 25 -70 25 l-70 0 0 36 0 37 73 -6 c39 -3 64 -3 55 0 -11 3 -18 14
-18 29 0 22 -3 24 -55 24 -54 0 -55 0 -55 30 l0 30 64 0 64 0 5 33 c2 17 3 34
1 36 -2 2 -4 -1 -4 -7z"/>
<path d="M7370 831 c0 -7 -28 -11 -75 -11 l-75 0 0 -140 0 -140 95 0 c95 0 95
0 95 25 0 24 -2 25 -65 25 l-65 0 0 36 0 35 53 -2 c50 -3 52 -2 55 24 3 26 2
27 -52 27 -56 0 -56 0 -56 30 l0 30 66 0 65 0 -3 32 c-2 22 -9 34 -20 36 -10
2 -18 -1 -18 -7z"/>
<path d="M7480 820 c-18 -18 -20 -33 -20 -150 l0 -130 29 0 c36 0 39 5 42 58
2 24 8 42 15 42 6 0 27 -22 45 -50 29 -43 39 -50 67 -50 l34 0 -32 56 -31 56
20 22 c22 24 28 75 11 106 -7 14 -5 19 10 23 23 6 34 -7 25 -30 -5 -15 -4 -15
13 0 10 9 22 14 26 10 4 -5 6 -1 4 7 -2 8 3 14 10 12 8 -1 11 2 8 7 -11 17
-44 9 -38 -9 4 -12 1 -11 -15 3 -17 15 -26 16 -42 8 -13 -8 -28 -8 -46 -1 -14
5 -42 10 -61 10 -19 0 -34 5 -34 10 0 16 -18 12 -40 -10z"/>
<path d="M7815 829 c-11 -4 -15 -8 -10 -9 6 0 -2 -7 -17 -16 -81 -44 -80 -207
2 -249 43 -22 122 -20 154 6 101 79 56 259 -65 259 -20 0 -39 4 -41 9 -1 4
-12 5 -23 0z m101 -80 c13 -15 19 -36 19 -69 0 -58 -24 -90 -68 -90 -49 0 -77
34 -77 92 0 35 6 54 20 68 27 27 81 26 106 -1z"/>
<path d="M3763 819 c-61 -18 -83 -88 -40 -125 12 -11 41 -28 64 -38 44 -20 56
-35 43 -56 -5 -9 -25 -11 -64 -8 -49 4 -56 2 -62 -15 -4 -11 -1 -23 7 -28 23
-15 132 -10 156 6 48 34 36 112 -22 139 -18 9 -37 16 -42 16 -16 0 -45 38 -38
49 8 14 78 14 92 0 7 -7 12 -3 17 17 8 29 -5 44 -36 44 -9 0 -22 2 -30 4 -7 2
-27 0 -45 -5z"/>
<path d="M5215 822 c-3 -3 -5 -68 -5 -144 l0 -138 70 0 c118 0 170 42 170 137
0 73 -19 108 -72 127 -43 15 -154 27 -163 18z m149 -73 c21 -17 26 -29 26 -65
0 -58 -32 -94 -85 -94 l-35 0 0 90 0 90 34 0 c19 0 45 -9 60 -21z"/>
<path d="M6498 823 l-68 -4 0 -140 0 -140 98 3 c89 3 97 5 97 23 0 18 -8 20
-67 23 l-68 3 0 34 0 35 55 0 c52 0 55 1 55 25 0 24 -3 25 -55 25 -54 0 -55 0
-55 30 0 29 1 29 63 32 54 3 62 6 65 24 2 15 -4 23 -20 28 -13 3 -25 5 -28 4
-3 -1 -35 -3 -72 -5z"/>
<path d="M6684 816 c-2 -6 -5 -72 -6 -147 l-3 -136 32 7 c18 4 35 5 38 2 3 -4
2 4 -3 17 -4 13 -6 36 -4 52 7 44 34 36 67 -21 28 -46 33 -50 70 -50 22 0 35
4 30 8 -6 4 -24 29 -39 55 l-28 49 22 23 c22 23 30 81 15 104 -21 34 -181 65
-191 37z"/>
<path d="M7008 823 l-58 -4 0 -139 0 -140 30 0 c29 0 30 1 30 50 0 68 25 68
65 0 26 -43 34 -50 63 -50 17 0 32 3 32 7 0 3 -14 28 -31 55 l-31 48 26 31
c42 50 32 91 -29 128 -20 11 -37 20 -38 19 -1 -1 -28 -3 -59 -5z"/>
<path d="M4494 807 c-2 -7 -3 -69 -2 -138 l3 -124 65 -3 c115 -5 170 39 170
137 0 67 -16 99 -62 122 -45 23 -165 27 -174 6z m150 -58 c21 -17 26 -29 26
-65 0 -58 -32 -94 -85 -94 l-35 0 0 90 0 90 34 0 c19 0 45 -9 60 -21z"/>
<path d="M5908 804 c-71 -38 -84 -177 -22 -235 23 -21 35 -24 110 -24 84 0 91
-3 85 -37 0 -5 4 -8 9 -8 6 0 10 8 10 18 0 14 2 15 10 2 8 -13 10 -13 10 1 0
9 -10 19 -21 22 -21 6 -21 9 -14 111 6 95 5 106 -10 106 -12 0 -15 5 -10 21 5
14 2 25 -6 30 -22 14 -122 10 -151 -7z m142 -49 c9 -10 9 -15 1 -15 -6 0 -11
-4 -11 -10 0 -5 3 -9 8 -9 20 3 32 -2 32 -15 0 -9 -12 -16 -27 -18 -26 -3 -28
-7 -31 -50 -3 -47 -4 -48 -38 -48 -50 0 -74 28 -74 90 0 65 23 90 84 90 26 0
48 -6 56 -15z"/>
<path d="M340 684 c0 -3 19 -29 43 -59 l42 -54 1236 0 1235 -1 35 48 c19 26
38 53 42 60 6 9 -259 12 -1313 12 -726 0 -1320 -3 -1320 -6z"/>
<path d="M513 462 c15 -15 27 -31 27 -34 0 -4 13 -20 28 -37 l28 -31 1069 0
1069 -1 18 23 c10 13 32 42 49 65 l30 43 -1173 0 -1172 0 27 -28z"/>
<path d="M1045 316 c0 -24 24 -69 25 -47 0 11 3 11 15 1 9 -7 15 -29 15 -51 0
-29 4 -39 16 -39 8 0 12 -4 9 -10 -3 -5 0 -10 7 -10 9 0 9 -3 -2 -10 -13 -8
-13 -10 1 -10 9 0 22 -13 29 -30 13 -33 40 -41 40 -12 0 20 -13 43 -26 45 -5
1 -8 5 -7 9 2 5 -3 7 -10 5 -7 -1 -11 7 -10 21 2 14 -3 22 -12 22 -10 0 -15
10 -15 30 0 17 2 30 4 30 3 0 39 -44 80 -97 42 -54 79 -102 84 -108 4 -5 14
-19 22 -30 14 -18 23 -19 98 -15 l82 5 -110 138 -110 137 -80 0 c-47 0 -80 -4
-80 -10 0 -5 -4 -10 -9 -10 -5 0 -7 8 -4 19 3 10 0 22 -6 25 -7 5 -8 1 -4 -11
3 -10 3 -15 -1 -11 -4 3 -9 14 -10 24 -4 26 -32 26 -31 0z"/>
<path d="M1360 273 c-13 -15 -12 -16 2 -11 12 5 36 -18 91 -87 70 -87 74 -94
58 -111 -15 -17 -15 -17 3 -4 17 13 21 11 46 -19 l28 -33 91 3 c55 3 93 0 95
-6 3 -7 5 -7 5 0 0 6 -4 17 -9 25 -8 12 -12 12 -18 3 -6 -9 -43 30 -117 122
l-109 135 -75 0 c-58 -1 -80 -5 -91 -17z"/>
<path d="M1616 274 c-3 -8 -2 -13 3 -10 5 3 55 -53 112 -124 l104 -130 83 0
c69 0 85 3 102 20 12 12 18 25 15 31 -4 5 -2 8 3 7 14 -4 142 164 135 176 -3
5 -1 6 4 3 6 -4 18 5 27 19 l17 25 -80 -2 c-76 -2 -80 -3 -103 -33 -12 -17
-23 -38 -23 -46 0 -8 -3 -13 -6 -10 -11 9 -50 -33 -44 -47 2 -8 1 -11 -4 -8
-5 3 -16 -4 -24 -15 -14 -20 -15 -19 -52 27 -21 27 -32 42 -25 36 8 -7 17 -13
21 -13 8 0 79 94 79 104 0 3 -34 6 -76 6 -43 0 -73 -4 -70 -9 7 -10 -20 -9
-30 2 -4 4 -42 7 -85 7 -60 0 -78 -3 -83 -16z"/>
</g>
</svg>
